<svg width="24" height="24" viewBox="0 0 24 24" fill="none" xmlns="http://www.w3.org/2000/svg">
<path d="M12 14C14.21 14 16 12.21 16 10V4C16 1.79 14.21 0 12 0C9.79 0 8 1.79 8 4V10C8 12.21 9.79 14 12 14ZM17 10C17 13.09 14.61 15.65 11.5 15.96V19H14V21H10V19H12.5V15.96C9.39 15.65 7 13.09 7 10H5C5 13.52 7.61 16.42 11 16.9V21H13V23H11C7.8 23 5.09 20.73 5 17.5H3C3 20.21 5.39 22.42 8.5 22.95V24H15.5V22.95C18.61 22.42 21 20.21 21 17.5H19C19 20.73 16.2 23 13 23H11V21H13.5V16.9C16.39 16.42 19 13.52 19 10H17Z" fill="currentColor"/>
</svg>